<svg fill="none" height="90" viewBox="0 0 90 90" width="90" xmlns="http://www.w3.org/2000/svg" xmlns:xlink="http://www.w3.org/1999/xlink"><clipPath id="a"><path d="m0 0h90v90h-90z"/></clipPath><g clip-path="url(#a)" clip-rule="evenodd" fill-rule="evenodd"><path d="m28.0225 59.9733c.6266 13.8959 14.2559 25 30.9775 25 2.7797 0 5.474-.3069 8.0373-.8824 5.8998 3.7572 13.3248 6.1854 20.5628 5.8839v-3.9748c-2.8519-2.3336-5.6438-4.8286-7.3745-8.0771 5.7471-4.53 9.4331-10.8783 9.7519-17.9496h.0225v-1-3h-.2041c-1.7735-12.9463-14.8848-23-30.7959-23s-29.0224 10.0537-30.7959 23h-.2041v3 1z" fill="#749bbf"/><path d="m59 80.9733c-17.1208 0-31-11.6406-31-26s13.8792-26 31-26 31 11.6406 31 26c0 7.7919-4.0868 14.7833-10.5607 19.5486 1.5684 4.4319 4.8063 8.7205 8.1608 11.4529-7.238.3015-14.663-2.1267-20.5628-5.8839-2.5633.5755-5.2576.8824-8.0373.8824z" fill="#d0e6fb"/><path d="m42.8831 77.1876c-8.9246-4.5645-14.8831-12.8058-14.8831-22.2143 0-14.3594 13.8792-26 31-26s31 11.6406 31 26c0 .3567-.0086.7117-.0255 1.065-1.9841-7.9308-7.6224-15.5227-16.0442-20.385-14.8271-8.5605-32.6671-5.419-39.8468 7.0166-6.3011 10.9138-2.2973 25.3591 8.7996 34.5177z" fill="#faffff"/><path d="m37.7294 73.8874c20.8185-1.3151 37.2708-17.5634 37.2708-37.4141 0-1.3101-.0716-2.6044-.2114-3.8798-4.6244-2.2999-10.0228-3.6202-15.7888-3.6202-17.1209 0-31 11.6406-31 26 0 7.4529 3.7389 14.1734 9.7294 18.9141z" fill="#aed0f0"/><path d="m72 35c0 17.1208-16.1177 31-36 31-3.9499 0-7.7511-.5478-11.307-1.5599-6.3302 4.1508-14.416 6.2881-22.293 5.9599v-4l.00572-.0047c3.33554-2.7294 6.59283-5.3947 8.34568-9.298-6.63642-5.6233-10.7514-13.4465-10.7514-22.0973v-4h.296923c2.278667-15.2314 17.394877-27 35.703077-27s33.4244 11.7686 35.7031 27h.2969z" fill="#749bbf"/><path d="m36 62c19.8823 0 36-13.8792 36-31s-16.1177-31-36-31-36 13.8792-36 31c0 8.9434 4.39805 17.0022 11.4333 22.6603-1.46435 5.0743-5.17613 9.5978-9.0333 12.7397 7.8769.3282 15.9628-1.8091 22.293-5.9599 3.5559 1.0121 7.3571 1.5599 11.307 1.5599z" fill="#d0e6fb"/><path d="m70.3469 21.6864c2.5995 13.3687-4.6312 28.3838-18.747 36.5336-1.5379.8878-3.1055 1.6642-4.6913 2.3313 14.5495-3.979 25.0914-15.705 25.0914-29.5513 0-3.2452-.5791-6.3738-1.6531-9.3136zm-68.83864 18.2211c-.981153-2.8212-1.50826-5.8114-1.50826-8.9075 0-14.7199 11.9141-27.0435 27.8915-30.21048-2.5415.8558-5.0539 1.98303-7.4916 3.39046-13.83284 7.98642-21.053851 22.56552-18.89164 35.72752z" fill="#faffff"/></g></svg>