<svg fill="none" height="90" viewBox="0 0 90 90" width="90" xmlns="http://www.w3.org/2000/svg" xmlns:xlink="http://www.w3.org/1999/xlink"><clipPath id="a"><path d="m0 0h90v90h-90z"/></clipPath><g clip-path="url(#a)"><path d="m40 75c19.33 0 35-15.67 35-35s-15.67-35-35-35-35 15.67-35 35 15.67 35 35 35z" fill="#aed0f0"/><g clip-rule="evenodd" fill-rule="evenodd"><path d="m64.9994 27.5c0 17.9493-14.5508 32.5-32.5 32.5-11.2969 0-21.2475-5.7638-27.07167-14.511 2.63392 16.7224 17.10957 29.511 34.57207 29.511 19.33 0 35-15.67 35-35 0-11.3967-5.4471-21.5212-13.88-27.912 2.4749 4.5863 3.8796 9.8351 3.8796 15.412z" fill="#d0e6fb"/><path d="m5 40c0 19.3144 15.6448 34.9747 34.9533 35h.0467v-35h35c0-19.33-15.67-35-35-35v35z" fill="#486688"/><path d="m32.4999 60c2.5815 0 5.0926-.3009 7.5002-.8697v15.8697h-.074c-17.4298-.036-31.86851-12.8125-34.49837-29.5118 5.82407 8.7477 15.77497 14.5118 27.07217 14.5118zm28.6207-47.9114c6.3059 4.779 10.9421 11.6459 12.8795 19.5714v8.34h-11.4909c1.6046-3.848 2.4907-8.0705 2.4907-12.5 0-5.5767-1.4046-10.8253-3.8793-15.4114z" fill="#749bbf"/><path d="m40.0661 75c19.2996-.0357 34.9339-15.692 34.9339-34.9999l-12.3682-.0001c-4.3654 9.1895-12.6174 16.1749-22.6318 18.832v16.168z" fill="#d0e6fb"/></g><path d="m57.416 67.3901 21.06 21.05c1.0662 1.1174 1.8904 1.5577 3.225 1.5577 1.7078 0 3.4235-1.2662 5.225-3.0677 1.8872-1.8873 3.0709-3.7389 3.0709-5.4574 0-.9636-.5207-1.9996-1.5609-2.9926l-21.05-21.05" fill="#666564"/><g clip-rule="evenodd" fill-rule="evenodd"><path d="m79.4233 89.2934c.681.4956 1.3583.7046 2.2778.7046 1.7078 0 3.4235-1.2662 5.225-3.0678 1.8872-1.8872 3.0709-3.7388 3.0709-5.4574 0-.9635-.5207-1.9995-1.5609-2.9926l-16.8048-16.8048 12.5591 16.1175c3.6253 4.6525.3661 10.9209-4.7671 11.5005z" fill="#8b8987" opacity=".5"/><path d="m76.5103 66.5543c-4.6822 3.5211-6.5416 9.6407-4.8376 15.0857l-14.2567-14.2499 9.97-9.96z" fill="#4b4847"/><path d="m40 80c22.0914 0 40-17.9086 40-40s-17.9086-40-40-40-40 17.9086-40 40 17.9086 40 40 40zm0-14c14.3594 0 26-11.6406 26-26s-11.6406-26-26-26-26 11.6406-26 26 11.6406 26 26 26z" fill="#749bbf"/><path d="m40 80c22.0914 0 40-17.9086 40-40s-17.9086-40-40-40-40 17.9086-40 40 17.9086 40 40 40zm0-10c16.5685 0 30-13.4315 30-30s-13.4315-30-30-30-30 13.4315-30 30 13.4315 30 30 30z" fill="#dad8d6"/><path d="m25.2773 77.2035c4.5566 1.8047 9.5238 2.7964 14.7225 2.7964 15.9409 0 29.7038-9.3247 36.1317-22.8172-11.1764 16.0172-31.7008 24.1663-50.8542 20.0208z" fill="#bebdb9"/><path d="m50.82 1.48056c-3.4414-.964673-7.0704-1.48056-10.8199-1.48056-16.2939 0-30.31235 9.74242-36.54795 23.7199 10.10005-15.70914 28.97905-24.398159 47.36785-22.23934z" fill="#f1f1f1"/></g></g></svg>