<svg fill="none" height="90" viewBox="0 0 90 90" width="90" xmlns="http://www.w3.org/2000/svg" xmlns:xlink="http://www.w3.org/1999/xlink"><clipPath id="a"><path d="m0 0h90v90h-90z"/></clipPath><g clip-path="url(#a)"><path d="m5 79c0 4.4183 3.58172 8 8 8h48.0294c3.1826 0 6.2349-1.2643 8.4853-3.5147l11.9706-11.9706c2.2504-2.2504 3.5147-5.3027 3.5147-8.4853v-48.0294c0-4.4183-3.5817-8-8-8h-64c-4.41828 0-8 3.5817-8 8z" fill="#8b8987"/><path d="m5 75c0 4.4183 3.58172 8 8 8h48.6863c2.1217 0 4.1566-.8429 5.6568-2.3431l15.3138-15.3138c1.5003-1.5002 2.3431-3.5351 2.3431-5.6568v-46.6863c0-4.41827-3.5817-8-8-8h-64c-4.41828 0-8 3.58172-8 8z" fill="#e7e6e5"/><path d="m5 55v-42c0-4.41828 3.58172-8 8-8h62l-60.5523 1.78095c-4.1961.12342-7.58312 3.46925-7.75789 7.66355z" fill="#f8f8f8"/><path d="m61.9999 83.0001-2.7113-11.9466c-1.0853-4.7819 2.3475-9.4058 7.2388-9.7508l18.4725-1.3026c0 1.7739-.7047 3.4752-1.959 4.7295l-16.3116 16.3115c-1.2543 1.2543-2.9555 1.959-4.7294 1.959z" fill="#bebdb9"/><path d="m62 83.0001v-15c0-4.4183 3.5817-8 8-8h15c0 1.7739-.7047 3.4752-1.959 4.7295l-16.3115 16.3115c-1.2544 1.2543-2.9556 1.959-4.7295 1.959z" fill="#f1f1f1"/><path d="m62 83.0001v-15c0-4.4183 3.5817-8 8-8h15l-14.3179 1.6939c-3.6765.435-6.5743 3.3357-7.0056 7.0127z" fill="#fff"/><path clip-rule="evenodd" d="m73 17h-31v8h31zm0 16h-31v8h31zm-56 16h56v8h-56zm15 16h-15v8h12zm42.5049-37.5043 4.1079-4.1079 6.256 6.2559-4.108 4.108z" fill="#bebdb9" fill-rule="evenodd"/><path d="m29 73 4.76-2.51 51.24-49.49v20.96l-38.57 31.04z" fill="#bebdb9"/><path clip-rule="evenodd" d="m72.9999 51.6174-6.6884 5.3826h-18.5844l8.2827-8h16.9901z" fill="#8b8987" fill-rule="evenodd"/><path d="m17 41h9.7714c5.9315 0 9.0515-2.5714 9.0515-6.6171 0-2.7429-1.3715-4.6972-3.6-5.6915 1.8171-1.0285 2.9485-2.8457 2.9485-5.2114 0-3.8743-2.9828-6.48-8.7428-6.48h-9.4286zm5.52-4.6971v-5.2458h3.7029c2.5714 0 4.08.7543 4.08 2.5372 0 1.8514-1.5086 2.7086-4.08 2.7086zm0-9.4972v-5.1086h3.1886c2.4685 0 3.9428.8572 3.9428 2.6058 0 1.7485-1.5085 2.5028-3.9428 2.5028z" fill="#666564"/><path d="m38.7678 63.2322-6.2596-6.2595-3.5082 16.0273 16.0274-3.5082z" fill="#fadaae"/><path d="m38.7678 63.2319-9.7678 9.7678 16.0274-3.5082z" fill="#e3c29c"/><path d="m70.2895 19.1944-37.7817 37.7817 12.5192 12.5192 37.7816-37.7817z" fill="#f7c631"/><path d="m76.5512 25.4483-37.7817 37.7817 6.256 6.256 37.7817-37.7817z" fill="#cf8d1b"/><path d="m84.876 29.6434c1.4524-1.4524 2.9048-2.9048 4.3674-4.3571.1739-.1739.3171-.3683.4296-.5626.2148-.3989.3273-.8285.3273-1.2785 0-.3375-.0716-.7057-.2148-1.033-.0409-.1023-.092-.1944-.1534-.2966-.1125-.1842-.2455-.358-.4091-.5217-.7569-.7569-8.1109-8.1108-8.8268-8.8268-.1944-.1943-.4194-.358-.6649-.4807-.092-.0409-.1943-.0921-.2863-.1228-.2864-.1125-.583-.1534-.8899-.1636-.4398 0-.8796.1125-1.2683.3375-.2045.1125-.3989.2557-.5727.4296-1.4524 1.4524-2.9048 2.9048-4.3674 4.3572.2352.2352 12.243 12.2429 12.5191 12.5191z" fill="#ff8a75"/><path d="m78.6162 23.384s6.1164 6.1164 6.2596 6.2596c1.4524-1.4524 2.9047-2.9048 4.3674-4.3572.1738-.1738.317-.3682.4295-.5625.2148-.3989.3273-.8285.3273-1.2785 0-.3375-.0716-.7057-.2147-1.033-.041-.1023-.0921-.1944-.1535-.2967-.1125-.1841-.2454-.3579-.4091-.5216-.3784-.3784-2.3831-2.3831-4.3981-4.3981" fill="#ff6352"/><path d="m72.3541 17.1264-4.108 4.108 12.5192 12.5191 4.1079-4.1079z" fill="#fff"/><path d="m78.6128 23.3878-4.1079 4.1079 6.2559 6.256 4.108-4.108z" fill="#e7e6e5"/></g></svg>